<svg width="28" height="22" viewBox="0 0 28 22" fill="none" xmlns="http://www.w3.org/2000/svg">
<path d="M18.7033 18.4192L16.6445 15.8769C17.0045 15.6704 17.3525 15.4438 17.6871 15.1983C20.8173 12.8991 22.5043 8.99166 22.7053 3.58844L21.584 3.56085C21.5273 3.55886 21.4725 3.5404 21.4261 3.50774C21.3798 3.47508 21.344 3.42963 21.3231 3.37694C21.3022 3.32426 21.2971 3.26662 21.3084 3.21108C21.3198 3.15555 21.347 3.10451 21.3869 3.06422L24.343 0.0857155C24.371 0.0576323 24.4044 0.0355533 24.4412 0.0208316C24.478 0.00610996 24.5174 -0.000944254 24.557 0.000101349C24.5966 0.00114695 24.6356 0.0102703 24.6715 0.0269124C24.7075 0.0435544 24.7397 0.0673644 24.7661 0.0968833L27.5646 3.2186C27.6027 3.26082 27.6276 3.31332 27.6362 3.36956C27.6447 3.4258 27.6365 3.48332 27.6127 3.53496C27.5888 3.5866 27.5503 3.6301 27.5019 3.66005C27.4536 3.68999 27.3975 3.70507 27.3406 3.70341L25.9433 3.66925C25.7114 10.1387 23.5784 14.8974 19.5922 17.8188C19.3064 18.0283 19.0068 18.2313 18.7033 18.4205V18.4192Z" fill="#3C5069"/>
<path d="M0.413868 19.9762C0.274807 19.9403 0.155224 19.8516 0.0805213 19.7289C0.00581864 19.6063 -0.0181166 19.4593 0.0138002 19.3193L0.539341 17.0562C0.572341 16.9137 0.660551 16.7902 0.78459 16.7127C0.90863 16.6352 1.05835 16.6101 1.20087 16.643L1.36772 16.6817V16.6771L1.49385 16.7113L1.69487 16.7579C1.72079 16.7638 1.74626 16.7715 1.77108 16.7809C3.27535 17.1353 4.80528 17.3704 6.34657 17.4838C4.79325 15.9761 3.78301 13.9964 3.47363 11.8539C3.16424 9.71141 3.57313 7.52677 4.63644 5.64119C5.69974 3.75562 7.35759 2.27528 9.35105 1.43139C11.3445 0.587499 13.5613 0.427574 15.6553 0.976592C17.7492 1.52561 19.6024 2.75266 20.9253 4.46609C22.2483 6.17951 22.9665 8.28284 22.9678 10.4476C22.9692 12.6123 22.2536 14.7165 20.9327 16.4316C19.6119 18.1466 17.7603 19.376 15.667 19.9276C13.3151 20.6752 10.8586 21.0411 8.39092 21.0115C5.69837 21.0121 3.01707 20.6641 0.413868 19.9762V19.9762ZM6.79919 10.4508C6.80057 11.4138 7.02022 12.3641 7.44164 13.23C7.86305 14.096 8.47526 14.8551 9.23226 15.4505C9.98926 16.0458 10.8713 16.4618 11.8122 16.6672C12.7531 16.8726 13.7283 16.8621 14.6646 16.6364L14.7959 16.5917L14.8032 16.6009C15.9518 16.2952 16.992 15.6739 17.8058 14.8075C18.6196 13.9411 19.1746 12.8641 19.4079 11.6986C19.6412 10.533 19.5435 9.32541 19.126 8.21249C18.7084 7.09958 17.9876 6.1258 17.0451 5.4014C16.1027 4.67701 14.9763 4.23094 13.7934 4.1137C12.6105 3.99645 11.4184 4.21272 10.3521 4.73801C9.2858 5.26331 8.38786 6.07664 7.75994 7.08593C7.13202 8.09522 6.79921 9.26015 6.79919 10.4488V10.4508Z" fill="#3C5069"/>
<path opacity="0.143" d="M6.36784 17.525C6.36784 17.525 12.5738 18.4316 14.8185 16.6211L14.8678 16.5804C14.0414 16.8196 13.1743 16.8851 12.3213 16.7729C11.4683 16.6606 10.6477 16.373 9.9113 15.928H9.90473C9.39233 16.0069 4.98633 15.8203 4.98633 15.8203L5.64719 16.7597L6.36784 17.525Z" fill="white"/>
</svg>
